<svg xmlns="http://www.w3.org/2000/svg" version="1.1" xmlns:xlink="http://www.w3.org/1999/xlink" xmlns:svgjs="http://svgjs.dev/svgjs" width="1000" height="1012" viewBox="0 0 1000 1012"><g transform="matrix(1,0,0,1,0.883934426229473,0.40971659919023296)"><svg viewBox="0 0 244 247" data-background-color="#ffffff" preserveAspectRatio="xMidYMid meet" height="1012" width="1000" xmlns="http://www.w3.org/2000/svg" xmlns:xlink="http://www.w3.org/1999/xlink"><g id="tight-bounds" transform="matrix(1,0,0,1,-0.21567999999999188,-0.09999999999999432)"><svg viewBox="0 0 244.43135999999998 247.2" height="247.2" width="244.43135999999998"><g><svg></svg></g><g><svg viewBox="0 0 244.43135999999998 247.2" height="247.2" width="244.43135999999998"><g transform="matrix(1,0,0,1,0,101.55704666175387)"><svg viewBox="0 0 244.43135999999998 44.08590667649226" height="44.08590667649226" width="244.43135999999998"><g><svg viewBox="0 0 244.43135999999998 44.08590667649226" height="44.08590667649226" width="244.43135999999998"><g><svg viewBox="0 0 244.43135999999998 44.08590667649226" height="44.08590667649226" width="244.43135999999998"><g><svg viewBox="0 0 244.43135999999998 44.08590667649226" height="44.08590667649226" width="244.43135999999998"><g id="textblocktransform"><svg viewBox="0 0 244.43135999999998 44.08590667649226" height="44.08590667649226" width="244.43135999999998" id="textblock"><g><svg viewBox="0 0 244.43135999999998 44.08590667649226" height="44.08590667649226" width="244.43135999999998"><g transform="matrix(1,0,0,1,0,0)"><svg width="244.43135999999998" viewBox="3 -36.8 271.37 48.949999999999996" height="44.08590667649226" data-palette-color="#ffa458"><path d="M11 0L4 0 4-27.2 3-32.25 4-35.4 11-35.4 11-29.4 10.5-19.95 14.5-19.95 22.55-35.4 30.5-35.4 30.5-32.4 20.6-18.35 29-7.95 33.95-3 33.95 0 24.7 0 15.6-14.25 11-13.75 11-6 11.5-3 11 0ZM46.25-31.45L40.95-26.1 35.6-31.45 40.95-36.8 46.25-31.45ZM44.4 0L37.45 0 37.45-16.55 36.4-20.55 37.4-23.6 44.4-23.6 44.4 0ZM57.1 0.5L57.1 0.5Q53.7 0.5 52.15-1 50.6-2.5 50.6-5.55L50.6-5.55 50.6-18.95 47.45-18.95 47.45-22.2 50.1-24.65 53.65-30.85 57.55-30.85 57.55-23.6 64.05-23.6 64.05-18.6 57.55-18.6 57.55-4.9 64.05-4.95 64.05-1Q64.05-1 63.25-0.63 62.45-0.25 60.92 0.13 59.4 0.5 57.1 0.5ZM77.79 0.5L77.79 0.5Q74.54 0.5 71.99-0.65 69.44-1.8 67.99-4.5 66.54-7.2 66.54-11.8L66.54-11.8Q66.54-16.25 68.09-18.95 69.64-21.65 72.19-22.88 74.74-24.1 77.79-24.1L77.79-24.1Q81.14-24.1 83.07-23.35 84.99-22.6 85.99-21.9L85.99-21.9 88.49-13.95 87.49-10.85 73.49-10.85Q73.79-8.2 75.39-6.6 76.99-5 80.29-5L80.29-5Q82.99-5 84.67-5.65 86.34-6.3 86.99-6.65L86.99-6.65 86.99-1.45Q85.49-0.65 83.17-0.08 80.84 0.5 77.79 0.5ZM73.44-14.05L73.44-14.05 80.94-15.05 80.19-18.75Q79.84-18.95 79.22-19.05 78.59-19.15 78.09-19.15L78.09-19.15Q75.84-19.15 74.64-17.57 73.44-16 73.44-14.05ZM120.64 0.5L120.64 0.5Q117.69 0.5 114.71-0.35 111.74-1.2 109.26-3.23 106.79-5.25 105.29-8.78 103.79-12.3 103.79-17.7L103.79-17.7Q103.79-23.15 105.91-27.23 108.04-31.3 111.74-33.6 115.44-35.9 120.14-35.9L120.14-35.9Q122.39-35.9 124.46-35.5 126.54-35.1 127.64-34.6L127.64-34.6 133.19-29.55 129.69-24.3 121.14-28.7Q118.34-28.7 116.09-27.35 113.84-26 112.51-23.53 111.19-21.05 111.19-17.7L111.19-17.7Q111.19-13.85 112.56-11.35 113.94-8.85 116.34-7.63 118.74-6.4 121.69-6.4L121.69-6.4Q124.69-6.4 126.84-6.93 128.99-7.45 130.44-8.13 131.89-8.8 132.64-9.3L132.64-9.3 132.64-2.5Q131.24-1.55 128.36-0.53 125.49 0.5 120.64 0.5ZM144.49 0.5L144.49 0.5Q141.14 0.5 138.81-1.23 136.49-2.95 136.49-6.6L136.49-6.6Q136.49-10.45 138.94-12.48 141.39-14.5 145.49-14.5L145.49-14.5Q148.49-14.5 150.06-14 151.64-13.5 152.14-13.25L152.14-13.25 152.49-13.55Q152.49-15.05 152.24-16.2 151.99-17.35 151.09-17.98 150.19-18.6 148.29-18.6L148.29-18.6Q144.89-18.6 142.21-18.05 139.54-17.5 137.99-17.05L137.99-17.05 137.99-22.55Q139.54-23.1 142.69-23.58 145.84-24.05 149.49-24.05L149.49-24.05Q152.59-24.05 154.56-23.23 156.54-22.4 157.61-21 158.69-19.6 159.11-17.93 159.54-16.25 159.54-14.6L159.54-14.6 159.54-7.95 160.54-2.9 159.54 0.05 152.99 0.05 152.99-2.4 152.49-2.65Q152.09-2.15 151.11-1.4 150.14-0.65 148.51-0.08 146.89 0.5 144.49 0.5ZM147.24-5.05L147.24-5.05Q149.39-5.05 150.61-5.45 151.84-5.85 152.49-6.25L152.49-6.25 152.49-7.2Q152.49-8.15 151.36-9.1 150.24-10.05 147.69-10.05L147.69-10.05Q145.79-10.05 144.89-9.3 143.99-8.55 143.99-7.4L143.99-7.4Q143.99-6.2 144.84-5.63 145.69-5.05 147.24-5.05ZM172.33 12.15L165.33 12.15 165.33-15.1 164.33-20.6 165.88-23.65 171.33-23.65 171.33-21.5 171.83-21.25Q171.83-21.25 172.73-22 173.63-22.75 175.21-23.48 176.78-24.2 178.88-24.2L178.88-24.2Q183.33-24.2 185.86-21.35 188.38-18.5 188.38-12.35L188.38-12.35Q188.38-7.75 187.11-4.93 185.83-2.1 183.68-0.85 181.53 0.4 178.88 0.4L178.88 0.4Q176.28 0.4 174.58-0.08 172.88-0.55 172.33-0.75L172.33-0.75 172.33 12.15ZM175.63-4.9L175.63-4.9Q177.58-4.9 178.73-5.88 179.88-6.85 180.38-8.45 180.88-10.05 180.88-11.9L180.88-11.9Q180.88-13.7 180.48-15.25 180.08-16.8 179.06-17.73 178.03-18.65 176.13-18.65L176.13-18.65 172.33-17.6 172.33-5.55Q172.33-5.55 173.36-5.23 174.38-4.9 175.63-4.9ZM200.03 0.5L200.03 0.5Q196.63 0.5 195.08-1 193.53-2.5 193.53-5.55L193.53-5.55 193.53-18.95 190.38-18.95 190.38-22.2 193.03-24.65 196.58-30.85 200.48-30.85 200.48-23.6 206.98-23.6 206.98-18.6 200.48-18.6 200.48-4.9 206.98-4.95 206.98-1Q206.98-1 206.18-0.63 205.38-0.25 203.86 0.13 202.33 0.5 200.03 0.5ZM217.48 0.5L217.48 0.5Q214.13 0.5 211.8-1.23 209.48-2.95 209.48-6.6L209.48-6.6Q209.48-10.45 211.93-12.48 214.38-14.5 218.48-14.5L218.48-14.5Q221.48-14.5 223.05-14 224.63-13.5 225.13-13.25L225.13-13.25 225.48-13.55Q225.48-15.05 225.23-16.2 224.98-17.35 224.08-17.98 223.18-18.6 221.28-18.6L221.28-18.6Q217.88-18.6 215.2-18.05 212.53-17.5 210.98-17.05L210.98-17.05 210.98-22.55Q212.53-23.1 215.68-23.58 218.83-24.05 222.48-24.05L222.48-24.05Q225.58-24.05 227.55-23.23 229.53-22.4 230.6-21 231.68-19.6 232.1-17.93 232.53-16.25 232.53-14.6L232.53-14.6 232.53-7.95 233.53-2.9 232.53 0.05 225.98 0.05 225.98-2.4 225.48-2.65Q225.08-2.15 224.1-1.4 223.13-0.65 221.5-0.08 219.88 0.5 217.48 0.5ZM220.23-5.05L220.23-5.05Q222.38-5.05 223.6-5.45 224.83-5.85 225.48-6.25L225.48-6.25 225.48-7.2Q225.48-8.15 224.35-9.1 223.23-10.05 220.68-10.05L220.68-10.05Q218.78-10.05 217.88-9.3 216.98-8.55 216.98-7.4L216.98-7.4Q216.98-6.2 217.83-5.63 218.68-5.05 220.23-5.05ZM247.13-31.45L241.83-26.1 236.48-31.45 241.83-36.8 247.13-31.45ZM245.28 0L238.33 0 238.33-16.55 237.28-20.55 238.28-23.6 245.28-23.6 245.28 0ZM257.82 0L250.82 0 250.82-15.05 249.82-20.55 251.37-23.6 256.82-23.6 256.82-21.45 257.27-21.15Q257.82-21.65 258.8-22.33 259.77-23 261.17-23.55 262.57-24.1 264.32-24.1L264.32-24.1Q268.82-24.1 271.07-21.55 273.32-19 273.32-14.4L273.32-14.4 273.32-8.05 274.37-3.05 273.32 0 266.32 0 266.32-14.6Q266.32-16.5 265.5-17.53 264.67-18.55 262.92-18.55L262.92-18.55 257.82-17.6 257.82 0Z" opacity="1" transform="matrix(1,0,0,1,0,0)" fill="#ffa458" class="wordmark-text-0" data-fill-palette-color="primary" id="text-0"></path></svg></g></svg></g></svg></g></svg></g><g></g></svg></g></svg></g></svg></g><path d="M0 95.557L0 1 244.431 1 244.431 95.557 240.456 95.557 240.456 4.976 3.976 4.976 3.976 95.557 0 95.557M0 151.643L0 246.2 244.431 246.2 244.431 151.643 240.456 151.643 240.456 242.224 3.976 242.224 3.976 151.643 0 151.643" fill="#ffa458" stroke="transparent" data-fill-palette-color="primary"></path></svg></g><defs></defs></svg><rect width="244.43135999999998" height="247.2" fill="none" stroke="none" visibility="hidden"></rect></g></svg></g></svg>